<mxfile host="app.diagrams.net" agent="Mozilla/5.0 (Windows NT 10.0; Win64; x64) AppleWebKit/537.36 (KHTML, like Gecko) Chrome/138.0.0.0 Safari/537.36" version="28.0.7">
  <diagram name="Page-1" id="OutotOiYrFUUzckwkvHJ">
    <mxGraphModel dx="1665" dy="757" grid="1" gridSize="10" guides="1" tooltips="1" connect="1" arrows="1" fold="1" page="1" pageScale="1" pageWidth="850" pageHeight="1100" math="0" shadow="0">
      <root>
        <mxCell id="0" />
        <mxCell id="1" parent="0" />
        <mxCell id="FeYR85AyItaHhFTclRGD-1" value="" style="ellipse;html=1;shape=startState;fillColor=#000000;strokeColor=#ff0000;rounded=1;shadow=0;comic=0;labelBackgroundColor=none;fontFamily=Verdana;fontSize=12;fontColor=#000000;align=center;direction=south;" vertex="1" parent="1">
          <mxGeometry x="76" y="585" width="30" height="30" as="geometry" />
        </mxCell>
        <mxCell id="FeYR85AyItaHhFTclRGD-2" value="Requête sur une demande de réapprovisionnement" style="rounded=1;whiteSpace=wrap;html=1;arcSize=24;fillColor=#ffffc0;strokeColor=#ff0000;shadow=0;comic=0;labelBackgroundColor=none;fontFamily=Verdana;fontSize=12;fontColor=#000000;align=center;" vertex="1" parent="1">
          <mxGeometry x="186" y="570" width="120" height="60" as="geometry" />
        </mxCell>
        <mxCell id="FeYR85AyItaHhFTclRGD-3" style="edgeStyle=orthogonalEdgeStyle;html=1;labelBackgroundColor=none;endArrow=open;endSize=8;strokeColor=#ff0000;fontFamily=Verdana;fontSize=12;align=left;entryX=0;entryY=0.5;entryDx=0;entryDy=0;" edge="1" parent="1" source="FeYR85AyItaHhFTclRGD-1" target="FeYR85AyItaHhFTclRGD-2">
          <mxGeometry relative="1" as="geometry">
            <mxPoint x="186" y="600" as="targetPoint" />
          </mxGeometry>
        </mxCell>
        <mxCell id="FeYR85AyItaHhFTclRGD-4" value="Recupère + traite la requête" style="rounded=1;whiteSpace=wrap;html=1;arcSize=24;fillColor=#ffffc0;strokeColor=#ff0000;shadow=0;comic=0;labelBackgroundColor=none;fontFamily=Verdana;fontSize=12;fontColor=#000000;align=center;" vertex="1" parent="1">
          <mxGeometry x="426" y="570" width="120" height="60" as="geometry" />
        </mxCell>
        <mxCell id="FeYR85AyItaHhFTclRGD-5" value="" style="rhombus;whiteSpace=wrap;html=1;" vertex="1" parent="1">
          <mxGeometry x="907" y="560" width="80" height="80" as="geometry" />
        </mxCell>
        <mxCell id="FeYR85AyItaHhFTclRGD-6" style="edgeStyle=orthogonalEdgeStyle;html=1;labelBackgroundColor=none;endArrow=open;endSize=8;strokeColor=#ff0000;fontFamily=Verdana;fontSize=12;align=left;entryX=0;entryY=0.5;entryDx=0;entryDy=0;exitX=1;exitY=0.5;exitDx=0;exitDy=0;" edge="1" parent="1" source="FeYR85AyItaHhFTclRGD-2" target="FeYR85AyItaHhFTclRGD-4">
          <mxGeometry relative="1" as="geometry">
            <mxPoint x="396" y="700" as="sourcePoint" />
            <mxPoint x="476" y="700" as="targetPoint" />
          </mxGeometry>
        </mxCell>
        <mxCell id="FeYR85AyItaHhFTclRGD-7" style="edgeStyle=orthogonalEdgeStyle;html=1;labelBackgroundColor=none;endArrow=open;endSize=8;strokeColor=#ff0000;fontFamily=Verdana;fontSize=12;align=left;entryX=0;entryY=0.5;entryDx=0;entryDy=0;exitX=1;exitY=0.5;exitDx=0;exitDy=0;" edge="1" parent="1">
          <mxGeometry relative="1" as="geometry">
            <mxPoint x="546" y="599.5" as="sourcePoint" />
            <mxPoint x="666" y="599.5" as="targetPoint" />
          </mxGeometry>
        </mxCell>
        <mxCell id="FeYR85AyItaHhFTclRGD-9" value="envoie la requête&lt;div&gt;&amp;nbsp;à krakenD&lt;/div&gt;" style="text;html=1;align=center;verticalAlign=middle;resizable=0;points=[];autosize=1;strokeColor=none;fillColor=none;fontSize=16;" vertex="1" parent="1">
          <mxGeometry x="286" y="550" width="150" height="50" as="geometry" />
        </mxCell>
        <mxCell id="FeYR85AyItaHhFTclRGD-11" value="" style="verticalLabelPosition=bottom;shadow=0;dashed=0;align=center;html=1;verticalAlign=top;strokeWidth=1;shape=ellipse;" vertex="1" parent="1">
          <mxGeometry x="1130" y="210" width="40" height="40" as="geometry" />
        </mxCell>
        <mxCell id="FeYR85AyItaHhFTclRGD-12" value="" style="group" vertex="1" connectable="0" parent="1">
          <mxGeometry x="948" y="243" width="39" height="327" as="geometry" />
        </mxCell>
        <mxCell id="FeYR85AyItaHhFTclRGD-13" style="edgeStyle=orthogonalEdgeStyle;html=1;labelBackgroundColor=none;endArrow=open;endSize=8;strokeColor=#ff0000;fontFamily=Verdana;fontSize=12;align=left;entryX=0;entryY=0.5;entryDx=0;entryDy=0;exitX=1;exitY=0.5;exitDx=0;exitDy=0;" edge="1" parent="FeYR85AyItaHhFTclRGD-12" target="FeYR85AyItaHhFTclRGD-11">
          <mxGeometry relative="1" as="geometry">
            <mxPoint y="316.1" as="sourcePoint" />
            <mxPoint x="39.32773109243697" y="316.1" as="targetPoint" />
          </mxGeometry>
        </mxCell>
        <mxCell id="FeYR85AyItaHhFTclRGD-14" style="edgeStyle=orthogonalEdgeStyle;html=1;labelBackgroundColor=none;endArrow=open;endSize=8;strokeColor=#ff0000;fontFamily=Verdana;fontSize=12;align=left;entryX=0;entryY=0.5;entryDx=0;entryDy=0;exitX=1;exitY=0.5;exitDx=0;exitDy=0;" edge="1" parent="1">
          <mxGeometry relative="1" as="geometry">
            <mxPoint x="985" y="600" as="sourcePoint" />
            <mxPoint x="1105" y="600" as="targetPoint" />
          </mxGeometry>
        </mxCell>
        <mxCell id="FeYR85AyItaHhFTclRGD-15" value="Non" style="text;html=1;align=center;verticalAlign=middle;resizable=0;points=[];autosize=1;strokeColor=none;fillColor=none;fontSize=16;" vertex="1" parent="1">
          <mxGeometry x="1020" y="200" width="50" height="30" as="geometry" />
        </mxCell>
        <mxCell id="FeYR85AyItaHhFTclRGD-16" value="Oui" style="text;html=1;align=center;verticalAlign=middle;resizable=0;points=[];autosize=1;strokeColor=none;fillColor=none;fontSize=16;" vertex="1" parent="1">
          <mxGeometry x="1030" y="570" width="50" height="30" as="geometry" />
        </mxCell>
        <mxCell id="FeYR85AyItaHhFTclRGD-38" value="FIN" style="text;html=1;align=center;verticalAlign=middle;resizable=0;points=[];autosize=1;strokeColor=none;fillColor=none;fontSize=16;" vertex="1" parent="1">
          <mxGeometry x="1125" y="180" width="50" height="30" as="geometry" />
        </mxCell>
        <mxCell id="FeYR85AyItaHhFTclRGD-39" value="DÉBUT" style="text;html=1;align=center;verticalAlign=middle;resizable=0;points=[];autosize=1;strokeColor=none;fillColor=none;fontSize=16;" vertex="1" parent="1">
          <mxGeometry x="40" y="551" width="80" height="30" as="geometry" />
        </mxCell>
        <mxCell id="FeYR85AyItaHhFTclRGD-40" value="Publie l&#39;événement" style="rounded=1;whiteSpace=wrap;html=1;arcSize=24;fillColor=#ffffc0;strokeColor=#ff0000;shadow=0;comic=0;labelBackgroundColor=none;fontFamily=Verdana;fontSize=12;fontColor=#000000;align=center;" vertex="1" parent="1">
          <mxGeometry x="667" y="570" width="120" height="60" as="geometry" />
        </mxCell>
        <mxCell id="FeYR85AyItaHhFTclRGD-41" style="edgeStyle=orthogonalEdgeStyle;html=1;labelBackgroundColor=none;endArrow=open;endSize=8;strokeColor=#ff0000;fontFamily=Verdana;fontSize=12;align=left;entryX=0;entryY=0.5;entryDx=0;entryDy=0;exitX=1;exitY=0.5;exitDx=0;exitDy=0;" edge="1" parent="1">
          <mxGeometry relative="1" as="geometry">
            <mxPoint x="787" y="600" as="sourcePoint" />
            <mxPoint x="907" y="600" as="targetPoint" />
          </mxGeometry>
        </mxCell>
        <mxCell id="FeYR85AyItaHhFTclRGD-43" value="RabbitMQ a reçu&lt;div&gt;&amp;nbsp;l&#39;evenement?&lt;/div&gt;" style="text;html=1;align=center;verticalAlign=middle;resizable=0;points=[];autosize=1;strokeColor=none;fillColor=none;fontSize=16;" vertex="1" parent="1">
          <mxGeometry x="780" y="550" width="140" height="50" as="geometry" />
        </mxCell>
        <mxCell id="FeYR85AyItaHhFTclRGD-44" value="" style="endArrow=none;dashed=1;html=1;dashPattern=1 3;strokeWidth=2;rounded=0;" edge="1" parent="1">
          <mxGeometry width="50" height="50" relative="1" as="geometry">
            <mxPoint x="850" y="750" as="sourcePoint" />
            <mxPoint x="850" y="600" as="targetPoint" />
          </mxGeometry>
        </mxCell>
        <mxCell id="FeYR85AyItaHhFTclRGD-45" value="La chaine RabbitMQ sur laquelle que les evenements sont publiées: reapprovisionnement.events&lt;div&gt;Les evenements sont :&lt;/div&gt;&lt;div&gt;- DemandeReapprovisionnementCree&lt;/div&gt;&lt;div&gt;-DemandeApprouvee&lt;/div&gt;&lt;div&gt;-DemandeAnnulee&lt;/div&gt;&lt;div&gt;&lt;br&gt;&lt;/div&gt;" style="rounded=0;whiteSpace=wrap;html=1;" vertex="1" parent="1">
          <mxGeometry x="640" y="750" width="420" height="110" as="geometry" />
        </mxCell>
        <mxCell id="FeYR85AyItaHhFTclRGD-46" value="Les subscribers consomment l&#39;event" style="rounded=1;whiteSpace=wrap;html=1;arcSize=24;fillColor=#ffffc0;strokeColor=#ff0000;shadow=0;comic=0;labelBackgroundColor=none;fontFamily=Verdana;fontSize=12;fontColor=#000000;align=center;" vertex="1" parent="1">
          <mxGeometry x="1100" y="570" width="120" height="60" as="geometry" />
        </mxCell>
        <mxCell id="FeYR85AyItaHhFTclRGD-47" value="Audit enregistre l&#39;event" style="rounded=1;whiteSpace=wrap;html=1;arcSize=24;fillColor=#ffffc0;strokeColor=#ff0000;shadow=0;comic=0;labelBackgroundColor=none;fontFamily=Verdana;fontSize=12;fontColor=#000000;align=center;" vertex="1" parent="1">
          <mxGeometry x="1380" y="435" width="120" height="60" as="geometry" />
        </mxCell>
        <mxCell id="FeYR85AyItaHhFTclRGD-48" value="Notif affiche l&#39;event" style="rounded=1;whiteSpace=wrap;html=1;arcSize=24;fillColor=#ffffc0;strokeColor=#ff0000;shadow=0;comic=0;labelBackgroundColor=none;fontFamily=Verdana;fontSize=12;fontColor=#000000;align=center;" vertex="1" parent="1">
          <mxGeometry x="1380" y="525" width="120" height="60" as="geometry" />
        </mxCell>
        <mxCell id="FeYR85AyItaHhFTclRGD-49" value="Supplies-event-store enregistre l&#39;event" style="rounded=1;whiteSpace=wrap;html=1;arcSize=24;fillColor=#ffffc0;strokeColor=#ff0000;shadow=0;comic=0;labelBackgroundColor=none;fontFamily=Verdana;fontSize=12;fontColor=#000000;align=center;" vertex="1" parent="1">
          <mxGeometry x="1380" y="615" width="120" height="60" as="geometry" />
        </mxCell>
        <mxCell id="FeYR85AyItaHhFTclRGD-50" value="Supplies-Query met à jour la projection" style="rounded=1;whiteSpace=wrap;html=1;arcSize=24;fillColor=#ffffc0;strokeColor=#ff0000;shadow=0;comic=0;labelBackgroundColor=none;fontFamily=Verdana;fontSize=12;fontColor=#000000;align=center;" vertex="1" parent="1">
          <mxGeometry x="1380" y="705" width="120" height="60" as="geometry" />
        </mxCell>
        <mxCell id="FeYR85AyItaHhFTclRGD-51" style="edgeStyle=orthogonalEdgeStyle;html=1;labelBackgroundColor=none;endArrow=open;endSize=8;strokeColor=#ff0000;fontFamily=Verdana;fontSize=12;align=left;entryX=0;entryY=0.5;entryDx=0;entryDy=0;exitX=1;exitY=0.5;exitDx=0;exitDy=0;" edge="1" parent="1" target="FeYR85AyItaHhFTclRGD-47">
          <mxGeometry relative="1" as="geometry">
            <mxPoint x="1220" y="600" as="sourcePoint" />
            <mxPoint x="1340" y="600" as="targetPoint" />
          </mxGeometry>
        </mxCell>
        <mxCell id="FeYR85AyItaHhFTclRGD-52" style="edgeStyle=orthogonalEdgeStyle;html=1;labelBackgroundColor=none;endArrow=open;endSize=8;strokeColor=#ff0000;fontFamily=Verdana;fontSize=12;align=left;entryX=0;entryY=0.5;entryDx=0;entryDy=0;exitX=1;exitY=0.5;exitDx=0;exitDy=0;" edge="1" parent="1" target="FeYR85AyItaHhFTclRGD-50">
          <mxGeometry relative="1" as="geometry">
            <mxPoint x="1220" y="600" as="sourcePoint" />
            <mxPoint x="1340" y="600" as="targetPoint" />
          </mxGeometry>
        </mxCell>
        <mxCell id="FeYR85AyItaHhFTclRGD-53" style="edgeStyle=orthogonalEdgeStyle;html=1;labelBackgroundColor=none;endArrow=open;endSize=8;strokeColor=#ff0000;fontFamily=Verdana;fontSize=12;align=left;entryX=0;entryY=0.5;entryDx=0;entryDy=0;exitX=1;exitY=0.5;exitDx=0;exitDy=0;" edge="1" parent="1" target="FeYR85AyItaHhFTclRGD-48">
          <mxGeometry relative="1" as="geometry">
            <mxPoint x="1220" y="600" as="sourcePoint" />
            <mxPoint x="1340" y="600" as="targetPoint" />
          </mxGeometry>
        </mxCell>
        <mxCell id="FeYR85AyItaHhFTclRGD-54" style="edgeStyle=orthogonalEdgeStyle;html=1;labelBackgroundColor=none;endArrow=open;endSize=8;strokeColor=#ff0000;fontFamily=Verdana;fontSize=12;align=left;entryX=0;entryY=0.5;entryDx=0;entryDy=0;exitX=1;exitY=0.5;exitDx=0;exitDy=0;" edge="1" parent="1" target="FeYR85AyItaHhFTclRGD-49">
          <mxGeometry relative="1" as="geometry">
            <mxPoint x="1220" y="600" as="sourcePoint" />
            <mxPoint x="1340" y="600" as="targetPoint" />
          </mxGeometry>
        </mxCell>
        <mxCell id="FeYR85AyItaHhFTclRGD-55" style="edgeStyle=orthogonalEdgeStyle;html=1;labelBackgroundColor=none;endArrow=open;endSize=8;strokeColor=#ff0000;fontFamily=Verdana;fontSize=12;align=left;entryX=1;entryY=0.5;entryDx=0;entryDy=0;exitX=1;exitY=0.5;exitDx=0;exitDy=0;" edge="1" parent="1" target="FeYR85AyItaHhFTclRGD-49">
          <mxGeometry relative="1" as="geometry">
            <mxPoint x="1500" y="740" as="sourcePoint" />
            <mxPoint x="1620" y="740" as="targetPoint" />
          </mxGeometry>
        </mxCell>
        <mxCell id="FeYR85AyItaHhFTclRGD-56" value="optionnel: peut replay&lt;div&gt;&amp;nbsp;un evenement&lt;/div&gt;" style="text;html=1;align=center;verticalAlign=middle;resizable=0;points=[];autosize=1;strokeColor=none;fillColor=none;" vertex="1" parent="1">
          <mxGeometry x="1500" y="660" width="140" height="40" as="geometry" />
        </mxCell>
        <mxCell id="FeYR85AyItaHhFTclRGD-57" style="edgeStyle=orthogonalEdgeStyle;html=1;labelBackgroundColor=none;endArrow=open;endSize=8;strokeColor=#ff0000;fontFamily=Verdana;fontSize=12;align=left;entryX=1;entryY=0.5;entryDx=0;entryDy=0;exitX=1;exitY=0.5;exitDx=0;exitDy=0;" edge="1" parent="1" target="FeYR85AyItaHhFTclRGD-11">
          <mxGeometry relative="1" as="geometry">
            <mxPoint x="1500" y="734.5" as="sourcePoint" />
            <mxPoint x="1620" y="734.5" as="targetPoint" />
            <Array as="points">
              <mxPoint x="1650" y="735" />
              <mxPoint x="1650" y="230" />
            </Array>
          </mxGeometry>
        </mxCell>
        <mxCell id="FeYR85AyItaHhFTclRGD-58" style="edgeStyle=orthogonalEdgeStyle;html=1;labelBackgroundColor=none;endArrow=open;endSize=8;strokeColor=#ff0000;fontFamily=Verdana;fontSize=12;align=left;entryX=1;entryY=0.5;entryDx=0;entryDy=0;exitX=1;exitY=0.5;exitDx=0;exitDy=0;" edge="1" parent="1" target="FeYR85AyItaHhFTclRGD-11">
          <mxGeometry relative="1" as="geometry">
            <mxPoint x="1500" y="644.5" as="sourcePoint" />
            <mxPoint x="1620" y="644.5" as="targetPoint" />
            <Array as="points">
              <mxPoint x="1640" y="645" />
              <mxPoint x="1640" y="230" />
            </Array>
          </mxGeometry>
        </mxCell>
        <mxCell id="FeYR85AyItaHhFTclRGD-59" style="edgeStyle=orthogonalEdgeStyle;html=1;labelBackgroundColor=none;endArrow=open;endSize=8;strokeColor=#ff0000;fontFamily=Verdana;fontSize=12;align=left;entryX=1;entryY=0.5;entryDx=0;entryDy=0;exitX=1;exitY=0.5;exitDx=0;exitDy=0;" edge="1" parent="1" target="FeYR85AyItaHhFTclRGD-11">
          <mxGeometry relative="1" as="geometry">
            <mxPoint x="1500" y="554.5" as="sourcePoint" />
            <mxPoint x="1620" y="554.5" as="targetPoint" />
            <Array as="points">
              <mxPoint x="1630" y="555" />
              <mxPoint x="1630" y="230" />
            </Array>
          </mxGeometry>
        </mxCell>
        <mxCell id="FeYR85AyItaHhFTclRGD-60" style="edgeStyle=orthogonalEdgeStyle;html=1;labelBackgroundColor=none;endArrow=open;endSize=8;strokeColor=#ff0000;fontFamily=Verdana;fontSize=12;align=left;entryX=1;entryY=0.5;entryDx=0;entryDy=0;exitX=1;exitY=0.5;exitDx=0;exitDy=0;" edge="1" parent="1" target="FeYR85AyItaHhFTclRGD-11">
          <mxGeometry relative="1" as="geometry">
            <mxPoint x="1500" y="464.5" as="sourcePoint" />
            <mxPoint x="1620" y="464.5" as="targetPoint" />
            <Array as="points">
              <mxPoint x="1620" y="465" />
              <mxPoint x="1620" y="230" />
            </Array>
          </mxGeometry>
        </mxCell>
      </root>
    </mxGraphModel>
  </diagram>
</mxfile>
